<svg xmlns="http://www.w3.org/2000/svg" viewBox="0 0 308 52"><style type="text/css">  
	.st0{fill:#FFFFFF;}
</style><path class="st0" d="M41.1 19.1c-0.6-1.1-1.4-2.1-2.4-3 -1.9-1.6-4.4-2.8-7.6-2.8 -5.7 0-12.3 4.2-12.3 13.1 0 9.5 6.7 13.5 12.4 13.5 2.9 0 5.3-0.7 7.1-2 1.8-1.2 3.1-3 3.7-5.2H28.5v-9.2h26.8c0.2 3.2-0.1 8.5-2.1 12.9 -4.4 9.9-14.5 13.7-22 13.7 -13.7 0-24-10.7-24-23.7 0-13.5 10.9-23.2 24.2-23.2 10.8 0 20.1 7.3 22.6 16H41.1z"/><path class="st0" d="M61.4 3.9h14.8c7.1 0 11.5 1.3 14 3.2 3.8 2.9 5.5 7.4 5.5 12.3 0 3.5-1 6.2-2.3 8.2 -1.5 2.4-3.7 3.9-5.9 4.8l9.3 16.6H84.9L73.1 27.3h1.9c2.9 0 5.4-0.2 7-1.2 1.4-0.9 2.6-3 2.6-5.5 0-2.4-1.2-4.3-2.7-5.2 -1.3-0.8-3.1-1.2-4.7-1.2h-4.3v35H61.4V3.9z"/><path class="st0" d="M113.1 49.1h-12.5l17.9-45.1h9.9l17.3 45.1h-12.6l-2.1-6.5h-15.8L113.1 49.1zM122.9 17.7l-4.9 15.7h9.9L122.9 17.7z"/><path class="st0" d="M165.7 3.9c8.4 0 11.5 1.3 13.9 3.3 3.5 2.9 5.3 7.4 5.3 12 0 4.6-1.9 9.4-4.8 11.8 -3.1 2.6-6.2 3.9-13.2 3.9h-4.5v14.2H150.9V3.9H165.7zM162.4 24.8h4.2c1.1 0 2.9 0 4.5-0.7 1.5-0.7 2.8-2.1 2.8-4.8 0-2.7-1.3-4-2.9-4.6 -1.6-0.7-3.5-0.7-4.8-0.7h-3.8V24.8z"/><path class="st0" d="M190.1 49.1V3.9h11.5v17h14.8V3.9h11.5v45.1h-11.5V31h-14.8v18.1H190.1z"/><path class="st0" d="M236.1 3.9h11.5v45.1h-11.5V3.9z"/><path class="st0" d="M300.6 32.2c-2.6 10.7-11.9 17.8-22.8 17.8 -14.1 0-23.8-11.3-23.8-23.5 0-11.5 8.9-23.4 23.7-23.4 14.2 0 21.7 10.9 22.9 18h-12.1c-1.3-3.4-4.7-7.9-10.9-7.9 -7.7 0-12.1 6.8-12.1 13.2 0 6.8 4.6 13.4 12.1 13.4 7.2 0 10.1-6 10.9-7.6H300.6z"/></svg>