<svg xmlns="http://www.w3.org/2000/svg" viewBox="0 0 624 52"><style type="text/css">  
	.st0{fill:#FFFFFF;}
</style><path class="st0" d="M12.3 48.5V3.3h15.4l8.5 29.1 8.2-29.1h15.5v45.1H49.3l0.4-33.8 -9.8 33.8h-7.6l-9.8-33.8 0.4 33.8H12.3z"/><path class="st0" d="M68.1 3.3h11.5v45.1H68.1V3.3z"/><path class="st0" d="M94.4 13.4h-8.9V3.3h29.3v10.1h-8.8v35H94.4V13.4z"/><path class="st0" d="M164.2 31.6c-2.6 10.7-11.9 17.8-22.8 17.8 -14.1 0-23.8-11.3-23.8-23.5 0-11.5 8.9-23.4 23.7-23.4 14.2 0 21.7 10.9 22.9 18h-12.1c-1.3-3.4-4.7-7.9-10.9-7.9 -7.7 0-12.1 6.8-12.1 13.2 0 6.8 4.6 13.4 12.1 13.4 7.2 0 10.1-6 10.9-7.6H164.2z"/><path class="st0" d="M170.2 48.5V3.3h11.5v17h14.8V3.3H208v45.1h-11.5V30.4h-14.8v18.1H170.2z"/><path class="st0" d="M216.2 3.3h25.6v10.1H227.7v7h13.6v10.1h-13.6v7.8h14v10.1h-25.6V3.3z"/><path class="st0" d="M248.7 3.3h11.5v35h13.4v10.1h-24.9V3.3z"/><path class="st0" d="M279.5 3.3h11.5v35h13.4v10.1h-24.9V3.3z"/><path class="st0" d="M327.7 3.3h16.6c4.6 0 8.4 1 10.9 3.1 2.6 2 4 4.9 4 8.8 0 3.5-1.6 7-5.2 9.1 7.3 2.6 7.4 8.6 7.4 10.5 0 3.6-1.4 7.6-4.1 9.8 -4.1 3.5-7.1 3.9-14.8 3.9h-14.8V3.3zM339.3 20.5h4.1c0.8 0 2 0 3.1-0.4 1-0.5 1.8-1.4 1.8-3.2 0-1.7-0.8-2.6-1.8-3 -1-0.4-2.2-0.4-3.1-0.4h-4.1V20.5zM339.3 38.3h5.4c0.7 0 2.2 0 3.4-0.5 1.3-0.5 2.3-1.6 2.3-3.8 0-1.9-1-2.9-2.2-3.4 -1.2-0.5-2.6-0.5-3.5-0.5h-5.4V38.3z"/><path class="st0" d="M375.3 48.5h-12.5l17.9-45.1h9.9l17.3 45.1h-12.6l-2.1-6.5h-15.8L375.3 48.5zM385.1 17l-4.9 15.7h9.9L385.1 17z"/><path class="st0" d="M413.1 3.3h14.8c7.1 0 11.5 1.3 14 3.2 3.8 2.9 5.5 7.4 5.5 12.3 0 3.5-1 6.2-2.3 8.2 -1.5 2.4-3.7 3.9-5.9 4.8l9.3 16.6h-11.9l-11.8-21.8h1.9c2.9 0 5.4-0.2 7-1.2 1.4-0.9 2.6-3 2.6-5.5 0-2.4-1.2-4.3-2.7-5.2 -1.3-0.8-3.1-1.2-4.7-1.2h-4.3v35h-11.5V3.3z"/><path class="st0" d="M498.5 31.6c-2.6 10.7-11.9 17.8-22.8 17.8 -14.1 0-23.8-11.3-23.8-23.5 0-11.5 8.9-23.4 23.7-23.4 14.2 0 21.7 10.9 22.9 18h-12.1c-1.3-3.4-4.7-7.9-10.9-7.9 -7.7 0-12.1 6.8-12.1 13.2 0 6.8 4.6 13.4 12.1 13.4 7.2 0 10.1-6 10.9-7.6H498.5z"/><path class="st0" d="M504.8 3.3h11.5v35h13.4v10.1h-24.9V3.3z"/><path class="st0" d="M546.7 48.5h-12.5l17.9-45.1h9.9l17.3 45.1h-12.6l-2.1-6.5h-15.8L546.7 48.5zM556.5 17l-4.9 15.7h9.9L556.5 17z"/><path class="st0" d="M587.8 32L574.3 3.3h12.5l6.7 18.1 6.8-18.1h12.4l-13.4 28.7v16.4h-11.5V32z"/></svg>