<svg xmlns="http://www.w3.org/2000/svg" viewBox="0 0 499 52"><style type="text/css">  
	.st0{fill:#FFFFFF;}
</style><path class="st0" d="M23.3 2.6c8.4 0 11.5 1.3 13.9 3.3 3.5 2.9 5.3 7.4 5.3 12 0 4.6-1.9 9.4-4.8 11.8 -3.1 2.6-6.2 3.9-13.2 3.9h-4.5V47.7H8.5V2.6H23.3zM20 23.4h4.2c1.1 0 2.9 0 4.5-0.7 1.5-0.7 2.8-2.1 2.8-4.8 0-2.7-1.3-4-2.9-4.6 -1.6-0.7-3.5-0.7-4.8-0.7h-3.8V23.4z"/><path class="st0" d="M47.3 47.7V2.6h11.5v17h14.8V2.6h11.5V47.7H73.6V29.7H58.8V47.7H47.3z"/><path class="st0" d="M91.3 25.6c0-14.8 11.4-23.9 23.8-23.9 13.9 0 23.9 10.9 23.9 23.4 0 12.6-9.9 23.4-23.9 23.4 -14.2 0-23.7-11.3-23.7-22.9V25.6zM102.9 25.1c0 6.9 4.7 13.4 12.4 13.4 8.2 0 12.1-7.4 12.1-13.2 0-5.9-4-13.4-12.3-13.4 -8 0-12.3 6.8-12.3 13.2V25.1z"/><path class="st0" d="M148.8 12.7h-8.9V2.6h29.3v10.1h-8.8V47.7H148.8V12.7z"/><path class="st0" d="M170 25.6c0-14.8 11.4-23.9 23.8-23.9 13.9 0 23.9 10.9 23.9 23.4 0 12.6-9.9 23.4-23.9 23.4 -14.2 0-23.7-11.3-23.7-22.9V25.6zM181.6 25.1c0 6.9 4.7 13.4 12.4 13.4 8.2 0 12.1-7.4 12.1-13.2 0-5.9-4-13.4-12.3-13.4 -8 0-12.3 6.8-12.3 13.2V25.1z"/><path class="st0" d="M255.7 17.7c-0.6-1.1-1.4-2.1-2.4-3 -1.9-1.6-4.4-2.8-7.6-2.8 -5.7 0-12.3 4.2-12.3 13.1 0 9.5 6.7 13.5 12.4 13.5 2.9 0 5.3-0.7 7.1-2 1.8-1.2 3.1-3 3.7-5.2h-13.5v-9.2h26.8c0.2 3.2-0.1 8.5-2.1 12.9 -4.4 9.9-14.5 13.7-22 13.7 -13.7 0-24-10.7-24-23.7 0-13.5 10.9-23.2 24.2-23.2 10.8 0 20.1 7.3 22.6 16H255.7z"/><path class="st0" d="M276 2.6h14.8c7.1 0 11.5 1.3 14 3.2 3.8 2.9 5.5 7.4 5.5 12.3 0 3.5-1 6.2-2.3 8.2 -1.5 2.4-3.7 3.9-5.9 4.8l9.3 16.6h-11.9l-11.8-21.8h1.9c2.9 0 5.4-0.2 7-1.2 1.4-0.9 2.6-3 2.6-5.5 0-2.4-1.2-4.3-2.7-5.2 -1.3-0.8-3.1-1.2-4.7-1.2h-4.3V47.7h-11.5V2.6z"/><path class="st0" d="M326.6 47.7h-12.5l17.9-45.1h9.9l17.3 45.1h-12.6l-2.1-6.5h-15.8L326.6 47.7zM336.4 16.3l-4.9 15.7h9.9L336.4 16.3z"/><path class="st0" d="M379.4 2.6c8.4 0 11.5 1.3 13.9 3.3 3.5 2.9 5.3 7.4 5.3 12 0 4.6-1.9 9.4-4.8 11.8 -3.1 2.6-6.2 3.9-13.2 3.9h-4.5V47.7h-11.5V2.6H379.4zM376.2 23.4h4.2c1.1 0 2.9 0 4.5-0.7 1.5-0.7 2.8-2.1 2.8-4.8 0-2.7-1.3-4-2.9-4.6 -1.6-0.7-3.5-0.7-4.8-0.7h-3.8V23.4z"/><path class="st0" d="M403.5 47.7V2.6H415v17h14.8V2.6h11.5V47.7h-11.5V29.7H415V47.7H403.5z"/><path class="st0" d="M459.7 31.3L446.2 2.6h12.5l6.7 18.1 6.8-18.1h12.4l-13.4 28.7V47.7h-11.5V31.3z"/></svg>