<svg xmlns="http://www.w3.org/2000/svg" viewBox="0 0 205 52"><style type="text/css">  
	.st0{fill:#FFFFFF;}
</style><path class="st0" d="M7.9 3h11.8l9.2 31.7 9.2-31.7h11.9L34.9 48.2h-11.9L7.9 3z"/><path class="st0" d="M55.1 3h11.5v45.1H55.1V3z"/><path class="st0" d="M74.8 3H89.7c5.1 0 14.1 0 20 8.4 3.1 4.3 4.2 9.1 4.2 14 0 12.3-6.1 22.7-23.2 22.7h-15.8V3zM86.3 38.1h4.9c8.6 0 11-6 11-12.4 0-2.6-0.5-5.8-2.2-8.4 -1.3-2-3.7-4.1-8.8-4.1h-5V38.1z"/><path class="st0" d="M120 3h25.6v10.1h-14v7h13.6V30.3h-13.6v7.8h14v10.1h-25.6V3z"/><path class="st0" d="M150.3 26.1c0-14.8 11.4-23.9 23.8-23.9 13.9 0 23.9 10.9 23.9 23.4 0 12.6-9.9 23.4-23.9 23.4 -14.2 0-23.7-11.3-23.7-22.9V26.1zM161.8 25.5c0 6.9 4.7 13.4 12.4 13.4 8.2 0 12.1-7.4 12.1-13.2 0-5.9-4-13.4-12.3-13.4 -8 0-12.3 6.8-12.3 13.2V25.5z"/></svg>