<svg xmlns="http://www.w3.org/2000/svg" viewBox="0 0 143 52"><style type="text/css">  
	.st0{fill:#FFFFFF;}
</style><path class="st0" d="M5.9 3h11.7l6.2 29.3L30.4 3h8.9l6.7 29.5 6.2-29.5H63.7L51.8 48.2H41.6l-6.9-29.2 -6.8 29.2H17.5L5.9 3z"/><path class="st0" d="M68.8 3h25.6v10.1H80.4v7h13.6V30.3h-13.6v7.8h14v10.1H68.8V3z"/><path class="st0" d="M101.4 3h16.6c4.6 0 8.4 1 10.9 3.1 2.6 2 4 4.9 4 8.8 0 3.5-1.6 7-5.2 9.1 7.3 2.6 7.4 8.6 7.4 10.5 0 3.6-1.4 7.6-4.1 9.8 -4.1 3.5-7.1 3.9-14.8 3.9H101.4V3zM112.9 20.2h4.1c0.8 0 2 0 3.1-0.4 1-0.5 1.8-1.4 1.8-3.2 0-1.7-0.8-2.6-1.8-3 -1-0.4-2.2-0.4-3.1-0.4h-4.1V20.2zM112.9 38.1h5.4c0.7 0 2.2 0 3.4-0.5 1.3-0.5 2.3-1.6 2.3-3.8 0-1.9-1-2.9-2.2-3.4 -1.2-0.5-2.6-0.5-3.5-0.5h-5.4V38.1z"/></svg>