<?xml version="1.0" standalone="no"?>
<!DOCTYPE svg PUBLIC "-//W3C//DTD SVG 20010904//EN"
 "http://www.w3.org/TR/2001/REC-SVG-20010904/DTD/svg10.dtd">
<svg version="1.0" xmlns="http://www.w3.org/2000/svg"
 width="300.000000pt" height="300.000000pt" viewBox="0 0 300.000000 300.000000"
 preserveAspectRatio="xMidYMid meet">
<metadata>
Created by potrace 1.14, written by Peter Selinger 2001-2017
</metadata>
<g transform="translate(0.000000,300.000000) scale(0.100000,-0.100000)"
fill="#000000" stroke="none">
<path d="M1198 2839 c-15 -4 -89 -49 -163 -101 -235 -162 -317 -218 -616 -423
-160 -110 -307 -217 -326 -239 -19 -21 -47 -64 -62 -95 l-26 -56 0 -370 0
-370 31 -65 c34 -69 55 -95 128 -155 53 -43 88 -48 119 -16 20 20 22 33 24
159 1 133 2 137 27 158 14 12 31 21 38 20 34 -6 57 -18 64 -34 4 -9 8 -113 10
-230 2 -207 2 -213 28 -267 16 -32 46 -70 74 -93 66 -55 89 -65 128 -57 58 10
64 36 64 258 0 178 2 195 20 214 10 12 29 24 40 28 30 10 80 -14 91 -42 5 -13
9 -162 10 -331 1 -169 4 -318 8 -332 9 -35 263 -238 307 -246 46 -9 96 11 125
49 l24 32 3 1225 c1 674 0 1244 -3 1267 -11 77 -93 132 -167 112z"/>
<path d="M1603 2832 c-45 -23 -81 -62 -98 -106 -14 -36 -15 -180 -13 -1252 l3
-1211 29 -37 c46 -61 135 -91 198 -67 19 7 799 493 868 541 8 5 59 37 112 70
124 78 179 134 229 235 117 238 77 470 -109 637 l-42 38 26 37 c36 53 68 118
89 183 19 57 26 190 13 243 -14 58 -54 123 -104 175 -54 54 -86 71 -424 227
-69 32 -168 78 -220 102 -395 185 -441 204 -485 202 -24 -2 -56 -9 -72 -17z
m689 -614 c44 -13 114 -75 129 -116 53 -139 -39 -302 -172 -302 -23 0 -40 9
-64 35 -40 42 -58 130 -50 245 6 80 22 115 66 137 30 16 42 16 91 1z m45 -886
c75 -53 103 -111 98 -195 -6 -106 -86 -198 -172 -199 -55 -1 -77 14 -104 69
-19 38 -23 66 -24 148 -1 55 2 113 6 130 23 80 118 103 196 47z"/>
</g>
</svg>
